<svg width="317" height="281" xmlns="http://www.w3.org/2000/svg" xml:space="preserve" enable-background="new 0 0 512 512" version="1.1">

 <g>
  <title>Layer 1</title>
  <path id="svg_1" d="m279.17189,121.36135c-10.3331,22.39363 -26.5104,38.10603 -49.32538,46.71515c-6.89852,2.60309 -14.15344,3.71054 -21.50463,3.77881c-13.32676,0.12371 -26.65541,0.08132 -39.98314,0.05065c-11.36081,-0.02615 -13.52448,-2.18722 -13.5286,-13.31797c-0.00616,-16.65981 0.11496,-33.32074 -0.04468,-49.97902c-0.10528,-10.98513 -0.60403,-21.96659 -0.93974,-32.94928c-0.03967,-1.29814 0.11948,-2.68369 -1.69035,-4.1351c-3.88854,4.96962 -7.75229,9.88255 -11.58927,14.81628c-9.20265,11.83319 -24.53567,12.62044 -34.77522,1.73317c-9.24296,-9.82765 -18.4238,-19.71381 -27.68201,-29.52702c-1.09305,-1.1586 -1.96595,-2.71323 -4.60486,-3.18546c0,3.27783 -0.01681,6.37131 0.0026,9.46457c0.19546,31.14655 0.41489,62.29294 0.58691,93.43962c0.06108,11.06011 -2.40318,13.53472 -13.43065,13.61928c-6.1636,0.04727 -12.32951,0.06918 -18.49159,-0.04636c-5.28058,-0.09897 -8.37607,-2.75538 -9.2894,-7.91133c-0.49106,-2.77209 -0.94468,-5.59334 -0.97792,-8.39758c-0.40655,-34.30763 -0.62018,-68.61789 -1.13517,-102.92369c-0.19726,-13.13976 -0.96708,-26.27323 -1.60942,-39.40302c-0.32472,-6.63762 2.90039,-12.01826 9.49161,-12.51068c12.76317,-0.9535 25.60085,-0.90522 38.40023,0.04028c5.1008,0.3768 8.37567,3.75161 11.60184,7.15035c9.8622,10.38976 19.68138,20.82036 29.5551,31.1991c1.35264,1.42183 2.464,3.16738 5.05926,4.15876c4.94945,-5.98135 10.02532,-12.09071 15.0734,-18.22293c5.18474,-6.2982 10.41054,-12.56447 15.48787,-18.94851c3.39073,-4.26339 7.6559,-5.96583 13.06649,-5.88364c11.99233,0.18216 24.00136,0.40854 35.98174,-0.00942c23.50235,-0.81993 42.63132,8.13824 58.85593,24.67384c24.66589,25.13865 31.98617,64.42071 17.43905,96.51115m-59.13229,-78.20742c-5.98087,-2.05716 -11.98244,-4.03553 -18.3947,-4.17895c-3.32947,-0.07448 -5.2225,1.08715 -5.25172,4.92161c-0.21318,27.96743 -0.53675,55.93418 -0.91767,83.89989c-0.04356,3.19728 1.07871,4.22841 4.312,4.46978c11.99357,0.89538 22.40761,-3.30939 31.60783,-10.23664c27.08362,-20.39235 18.56577,-69.83968 -11.35574,-78.87569z" fill="#005fbf"/>
  <path id="svg_2" d="m142.25652,275.06862c-0.27967,-15.18679 -0.44866,-29.92901 0.18931,-45.28421c-5.78936,11.49951 -11.61944,22.33393 -16.70317,33.50788c-2.36706,5.20272 -6.23617,4.37106 -10.32696,4.62027c-3.81679,0.23254 -6.07694,-1.02243 -7.77898,-4.6359c-4.94612,-10.50049 -9.43718,-21.23965 -16.12369,-31.20328c0,13.55555 0.06464,27.11173 -0.0626,40.66608c-0.02163,2.30264 1.39514,5.76325 -1.53873,6.68484c-3.74895,1.17765 -7.93756,0.94327 -11.84456,-0.01934c-1.49252,-0.36774 -1.21182,-2.21787 -1.21294,-3.50824c-0.02012,-23.16541 0.01365,-46.33084 -0.04275,-69.4961c-0.00711,-2.91794 0.98697,-4.43527 4.0517,-4.16116c0.33026,0.02951 0.66641,-0.01431 0.99942,-0.00662c14.89839,0.34424 11.02987,-2.42328 17.5698,10.97921c5.90194,12.09501 11.174,24.47556 16.83219,38.01502c1.86647,-3.94525 3.25297,-6.86264 4.62825,-9.78528c5.38956,-11.45346 10.85847,-22.8707 16.11255,-34.38601c1.58369,-3.47092 3.6934,-4.91385 7.65167,-4.86634c12.71809,0.15262 12.69931,-0.00525 12.68222,12.73316c-0.02548,18.99884 -0.01245,37.99771 -0.02801,56.99658c-0.00655,7.99746 -0.0207,7.9975 -7.83083,8.02167c-0.83328,0.00259 -1.67926,-0.08844 -2.49765,0.0231c-3.44431,0.4693 -5.03172,-0.96942 -4.72624,-4.89533z" fill="#005fbf"/>
  <path id="svg_3" d="m0,205.80342c0.41004,-1.72259 1.29301,-2.33322 2.56813,-2.51321c10.93062,-1.543 22.01511,-2.11243 32.84728,-0.51962c17.23182,2.53387 27.45097,12.71683 30.5131,30.42123c3.00594,17.37943 -2.15754,33.49167 -18.71845,43.27484c-4.52596,2.67368 -9.51059,4.11969 -14.72426,4.22568c-8.98896,0.18268 -17.98668,-0.07684 -26.97632,0.0882c-3.84247,0.07055 -4.76613,-1.64707 -4.7396,-5.14398c0.12381,-16.31952 0.00013,-32.64081 0.0941,-48.96073c0.03934,-6.83166 -0.23387,-13.634 -0.86398,-20.87241m24.64443,10.14377c-10.15241,-0.0039 -9.09654,-0.66729 -9.12503,9.1532c-0.02849,9.8201 -0.13054,19.64228 0.02313,29.46005c0.2326,14.86081 -2.53771,12.46116 13.05804,12.64695c7.10205,0.08462 13.02055,-2.6695 17.31053,-8.33069c7.26193,-9.5831 7.37281,-20.11981 2.75846,-30.64679c-4.33128,-9.88123 -13.10544,-12.48035 -24.02513,-12.28272z" fill="#005fbf"/>
  <path id="svg_4" d="m299.55699,277.41164c-4.43826,-7.2637 -8.65005,-14.20471 -13.03631,-21.43326c-4.61371,3.06958 -7.77606,6.32102 -7.03049,11.94113c0.13022,0.98151 0.01755,1.99537 0.0152,2.9943c-0.02106,8.92736 -2.40799,10.71798 -11.33768,8.87503c-2.6521,-0.54737 -2.3996,-2.301 -2.4042,-4.12183c-0.01645,-6.49301 0.02011,-12.98636 -0.03617,-19.47897c-0.14431,-16.64243 -0.26715,-33.28558 -0.54007,-49.92609c-0.06433,-3.92309 0.57468,-6.18869 5.40253,-6.01324c8.8476,0.32153 8.89896,0.05481 8.91299,6.0122c0.02893,12.28028 0.00873,24.56067 1.09919,37.42081c3.70849,-4.29623 7.89016,-8.27875 11.00119,-12.9711c3.58349,-5.40497 8.02334,-7.51941 14.26144,-6.54553c2.40463,0.37543 4.94861,-0.51364 7.89359,0.92694c-3.27478,5.35767 -7.61091,9.66864 -11.39887,14.3732c-5.67691,7.05047 -5.70947,6.99908 -0.89779,14.42505c4.6155,7.12323 9.20227,14.2652 13.76919,21.41968c0.68503,1.07312 1.82916,2.00579 1.28027,4.22378c-5.51809,-0.46048 -11.363,2.51779 -16.95401,-2.1221z" fill="#005fbf"/>
  <path id="svg_5" d="m171.85352,234.55004c6.65829,-14.12778 28.45579,-13.83438 37.44563,-6.74854c4.92917,3.88526 7.08203,9.04273 7.1944,15.21262c0.19067,10.46564 -0.47803,20.94793 0.83917,31.39828c0.2515,1.99509 1.40003,5.36313 -2.08417,5.65326c-3.31576,0.27607 -7.41696,1.82978 -9.66879,-2.57168c-0.29047,-0.56772 -0.65534,-1.09735 -1.18341,-1.97214c-7.69431,5.09155 -15.8916,6.84457 -24.76764,4.40616c-8.26187,-2.26972 -12.91533,-8.57071 -12.79286,-17.34918c0.10535,-7.55124 4.14117,-12.15122 12.81709,-14.2255c6.3327,-1.51404 12.83231,-1.87353 19.30716,-1.6907c3.81052,0.1076 4.3143,-1.55002 3.39456,-4.56458c-1.22598,-4.01825 -3.85083,-6.63052 -8.06497,-7.17621c-4.22073,-0.54648 -8.32619,-0.556 -11.01096,3.80747c-1.69943,2.76205 -9.29167,4.5914 -11.90705,2.74957c-2.98641,-2.10309 -0.18946,-4.38791 0.48184,-6.92883m17.08534,34.66391c7.51385,-0.13108 12.47467,-2.8808 13.57037,-7.76767c0.45517,-2.03009 1.15342,-4.90915 -1.91845,-5.26062c-5.78275,-0.66162 -11.72455,-0.90006 -17.10822,1.8959c-4.21501,2.18906 -4.17935,7.23752 -0.05195,9.57486c1.40226,0.79413 3.11732,1.03598 5.50825,1.55753z" fill="#005fbf"/>
  <path id="svg_6" d="m250.09834,237.12175c-6.40667,2.80674 -8.89157,7.65168 -8.99359,14.05271c-0.1326,8.31619 -0.63638,16.63486 -0.49118,24.94391c0.08704,4.98221 -2.86914,4.73651 -6.16095,4.65441c-3.27685,-0.08172 -6.76901,0.72043 -6.69873,-4.70034c0.20508,-15.81088 0.13034,-31.62631 0.04544,-47.4393c-0.01736,-3.23667 1.28367,-4.59152 4.44202,-4.36936c3.77063,0.26535 8.89395,-1.98321 8.57791,6.24451c5.3295,-6.08438 10.81275,-8.88898 17.8357,-6.72934c0.75326,11.63608 0.10916,12.66989 -8.55662,13.3428z" fill="#005fbf"/>
 </g>
</svg>