<?xml version="1.0" encoding="UTF-8"?>
<svg xmlns="http://www.w3.org/2000/svg" xmlns:xlink="http://www.w3.org/1999/xlink" width="80px" height="80px" viewBox="0 0 80 80" version="1.1">
<g id="surface1">
<path style=" stroke:none;fill-rule:nonzero;fill:rgb(0%,0%,0%);fill-opacity:1;" d="M 50.78125 32.472656 C 49.167969 35.96875 46.640625 38.425781 43.074219 39.769531 C 41.996094 40.175781 40.863281 40.351562 39.714844 40.359375 C 37.632812 40.378906 35.550781 40.375 33.46875 40.367188 C 31.691406 40.363281 31.355469 40.027344 31.355469 38.289062 C 31.351562 35.683594 31.371094 33.082031 31.347656 30.480469 C 31.332031 28.761719 31.253906 27.046875 31.199219 25.332031 C 31.195312 25.128906 31.21875 24.910156 30.9375 24.683594 C 30.328125 25.460938 29.726562 26.230469 29.125 27 C 27.6875 28.847656 25.292969 28.972656 23.691406 27.269531 C 22.246094 25.734375 20.8125 24.191406 19.367188 22.65625 C 19.195312 22.476562 19.058594 22.234375 18.648438 22.160156 C 18.648438 22.671875 18.644531 23.15625 18.648438 23.636719 C 18.679688 28.503906 18.710938 33.371094 18.738281 38.238281 C 18.75 39.964844 18.363281 40.351562 16.640625 40.367188 C 15.675781 40.375 14.714844 40.375 13.75 40.359375 C 12.925781 40.34375 12.441406 39.929688 12.300781 39.121094 C 12.222656 38.6875 12.152344 38.25 12.148438 37.808594 C 12.082031 32.449219 12.050781 27.089844 11.96875 21.726562 C 11.9375 19.675781 11.820312 17.625 11.71875 15.570312 C 11.667969 14.535156 12.171875 13.695312 13.199219 13.617188 C 15.195312 13.46875 17.203125 13.476562 19.199219 13.625 C 20 13.683594 20.511719 14.210938 21.015625 14.742188 C 22.554688 16.363281 24.089844 17.992188 25.632812 19.617188 C 25.84375 19.835938 26.015625 20.109375 26.421875 20.265625 C 27.195312 19.332031 27.988281 18.375 28.777344 17.417969 C 29.585938 16.433594 30.402344 15.453125 31.199219 14.457031 C 31.726562 13.789062 32.394531 13.523438 33.238281 13.539062 C 35.113281 13.566406 36.988281 13.601562 38.863281 13.535156 C 42.535156 13.410156 45.523438 14.808594 48.058594 17.390625 C 51.910156 21.320312 53.054688 27.457031 50.78125 32.472656 M 41.542969 20.25 C 40.609375 19.929688 39.671875 19.621094 38.667969 19.597656 C 38.148438 19.585938 37.851562 19.769531 37.847656 20.367188 C 37.816406 24.738281 37.765625 29.105469 37.703125 33.476562 C 37.699219 33.976562 37.875 34.136719 38.378906 34.175781 C 40.253906 34.316406 41.878906 33.660156 43.316406 32.574219 C 47.550781 29.390625 46.21875 21.664062 41.542969 20.25 Z M 41.542969 20.25 "/>
<path style=" stroke:none;fill-rule:nonzero;fill:rgb(0%,0%,0%);fill-opacity:1;" d="M 33.140625 60.082031 C 33.097656 57.710938 33.070312 55.40625 33.167969 53.007812 C 32.265625 54.804688 31.351562 56.496094 30.558594 58.242188 C 30.1875 59.054688 29.585938 58.925781 28.945312 58.964844 C 28.347656 59 27.996094 58.804688 27.730469 58.238281 C 26.957031 56.597656 26.253906 54.921875 25.210938 53.363281 C 25.210938 55.480469 25.222656 57.601562 25.199219 59.71875 C 25.199219 60.078125 25.417969 60.617188 24.960938 60.761719 C 24.375 60.945312 23.71875 60.910156 23.109375 60.757812 C 22.875 60.703125 22.921875 60.414062 22.921875 60.210938 C 22.917969 56.59375 22.921875 52.972656 22.914062 49.351562 C 22.914062 48.898438 23.066406 48.660156 23.546875 48.703125 C 23.597656 48.707031 23.652344 48.699219 23.703125 48.703125 C 26.03125 48.753906 25.425781 48.324219 26.449219 50.417969 C 27.371094 52.308594 28.195312 54.242188 29.078125 56.355469 C 29.371094 55.742188 29.585938 55.285156 29.800781 54.828125 C 30.644531 53.039062 31.496094 51.253906 32.320312 49.453125 C 32.566406 48.914062 32.894531 48.6875 33.515625 48.695312 C 35.5 48.71875 35.5 48.695312 35.496094 50.683594 C 35.492188 53.652344 35.496094 56.621094 35.492188 59.589844 C 35.492188 60.839844 35.488281 60.839844 34.269531 60.84375 C 34.136719 60.84375 34.003906 60.828125 33.878906 60.847656 C 33.339844 60.921875 33.089844 60.695312 33.140625 60.082031 Z M 33.140625 60.082031 "/>
<path style=" stroke:none;fill-rule:nonzero;fill:rgb(0%,0%,0%);fill-opacity:1;" d="M 10.910156 49.257812 C 10.976562 48.988281 11.113281 48.894531 11.3125 48.867188 C 13.019531 48.625 14.753906 48.535156 16.445312 48.785156 C 19.136719 49.179688 20.734375 50.773438 21.214844 53.539062 C 21.683594 56.253906 20.875 58.773438 18.289062 60.300781 C 17.582031 60.71875 16.800781 60.945312 15.988281 60.960938 C 14.582031 60.988281 13.175781 60.949219 11.773438 60.972656 C 11.171875 60.984375 11.027344 60.71875 11.03125 60.171875 C 11.050781 57.621094 11.03125 55.070312 11.046875 52.519531 C 11.054688 51.453125 11.011719 50.390625 10.910156 49.257812 M 14.761719 50.84375 C 13.175781 50.84375 13.339844 50.738281 13.335938 52.273438 C 13.332031 53.808594 13.316406 55.34375 13.339844 56.878906 C 13.375 59.199219 12.945312 58.824219 15.378906 58.855469 C 16.492188 58.867188 17.414062 58.4375 18.085938 57.550781 C 19.21875 56.054688 19.238281 54.410156 18.515625 52.761719 C 17.839844 51.21875 16.46875 50.8125 14.761719 50.84375 Z M 14.761719 50.84375 "/>
<path style=" stroke:none;fill-rule:nonzero;fill:rgb(0%,0%,0%);fill-opacity:1;" d="M 57.71875 60.449219 C 57.023438 59.3125 56.367188 58.230469 55.679688 57.097656 C 54.960938 57.578125 54.464844 58.085938 54.582031 58.964844 C 54.601562 59.117188 54.585938 59.277344 54.585938 59.433594 C 54.582031 60.828125 54.207031 61.109375 52.8125 60.820312 C 52.398438 60.734375 52.4375 60.460938 52.4375 60.175781 C 52.433594 59.160156 52.441406 58.144531 52.433594 57.132812 C 52.410156 54.53125 52.390625 51.929688 52.347656 49.332031 C 52.335938 48.71875 52.4375 48.363281 53.191406 48.390625 C 54.574219 48.441406 54.582031 48.398438 54.585938 49.332031 C 54.589844 51.25 54.585938 53.167969 54.757812 55.179688 C 55.335938 54.507812 55.988281 53.882812 56.476562 53.152344 C 57.035156 52.304688 57.726562 51.976562 58.703125 52.128906 C 59.078125 52.1875 59.476562 52.046875 59.9375 52.273438 C 59.425781 53.109375 58.746094 53.785156 58.15625 54.519531 C 57.269531 55.621094 57.261719 55.613281 58.015625 56.773438 C 58.738281 57.886719 59.453125 59 60.167969 60.121094 C 60.273438 60.289062 60.453125 60.433594 60.367188 60.78125 C 59.503906 60.707031 58.589844 61.171875 57.71875 60.449219 Z M 57.71875 60.449219 "/>
<path style=" stroke:none;fill-rule:nonzero;fill:rgb(0%,0%,0%);fill-opacity:1;" d="M 37.765625 53.75 C 38.804688 51.542969 42.210938 51.589844 43.613281 52.695312 C 44.386719 53.304688 44.722656 54.109375 44.738281 55.074219 C 44.769531 56.707031 44.664062 58.347656 44.871094 59.980469 C 44.910156 60.292969 45.089844 60.816406 44.542969 60.863281 C 44.027344 60.90625 43.386719 61.148438 43.035156 60.460938 C 42.988281 60.371094 42.929688 60.289062 42.847656 60.152344 C 41.648438 60.949219 40.367188 61.222656 38.980469 60.839844 C 37.6875 60.488281 36.960938 59.503906 36.980469 58.128906 C 36.996094 56.949219 37.628906 56.230469 38.984375 55.90625 C 39.972656 55.671875 40.988281 55.613281 42 55.644531 C 42.59375 55.660156 42.671875 55.402344 42.53125 54.929688 C 42.339844 54.300781 41.929688 53.894531 41.269531 53.808594 C 40.609375 53.722656 39.96875 53.722656 39.550781 54.402344 C 39.285156 54.835938 38.097656 55.121094 37.6875 54.832031 C 37.222656 54.503906 37.660156 54.148438 37.765625 53.75 M 40.433594 59.167969 C 41.609375 59.148438 42.382812 58.71875 42.554688 57.953125 C 42.625 57.636719 42.734375 57.1875 42.253906 57.132812 C 41.351562 57.027344 40.421875 56.992188 39.582031 57.429688 C 38.921875 57.769531 38.929688 58.558594 39.574219 58.925781 C 39.792969 59.046875 40.058594 59.085938 40.433594 59.167969 Z M 40.433594 59.167969 "/>
<path style=" stroke:none;fill-rule:nonzero;fill:rgb(0%,0%,0%);fill-opacity:1;" d="M 49.988281 54.152344 C 48.988281 54.589844 48.601562 55.347656 48.585938 56.347656 C 48.5625 57.648438 48.484375 58.949219 48.507812 60.246094 C 48.519531 61.023438 48.058594 60.984375 47.546875 60.972656 C 47.03125 60.960938 46.488281 61.085938 46.5 60.238281 C 46.53125 57.769531 46.519531 55.296875 46.503906 52.828125 C 46.503906 52.320312 46.707031 52.109375 47.199219 52.144531 C 47.789062 52.183594 48.589844 51.832031 48.539062 53.121094 C 49.371094 52.167969 50.230469 51.730469 51.328125 52.066406 C 51.445312 53.886719 51.34375 54.046875 49.988281 54.152344 Z M 49.988281 54.152344 "/>
</g>
</svg>
